 
http://www.imdb.com/title/tt1980209/


A trio of bodybuilders in Florida get caught up in an extortion ring and a kidnapping scheme that goes terribly wrong. 



Director:
 Michael Bay 

Writers:
 Christopher Markus (screenplay), Stephen McFeely (screenplay)

Stars:
 Mark Wahlberg, Dwayne Johnson, Anthony Mackie 

Genres:
  Action |  Comedy |  Crime |  Drama |  Thriller 

Country:
 USA 

Language:
 English 



Format                                   : AVI
Format/Info                              : Audio Video Interleave
File size                                : 699 MiB
Duration                                 : 2h 0mn
Overall bit rate                         : 811 Kbps
Writing application                      : Lavf55.3.100

Video
ID                                       : 0
Format                                   : MPEG-4 Visual
Format profile                           : Simple@L3
Format settings, BVOP                    : No
Format settings, QPel                    : No
Format settings, GMC                     : No warppoints
Format settings, Matrix                  : Default (H.263)
Codec ID                                 : XVID
Codec ID/Hint                            : XviD
Duration                                 : 2h 0mn
Bit rate                                 : 720 Kbps
Width                                    : 640 pixels
Height                                   : 240 pixels
Display aspect ratio                     : 2.571
Frame rate                               : 25.000 fps
Color space                              : YUV
Chroma subsampling                       : 4:2:0
Bit depth                                : 8 bits
Scan type                                : Progressive
Compression mode                         : Lossy
Bits/(Pixel*Frame)                       : 0.188
Stream size                              : 621 MiB (89%)
Writing library                          : XviD 64

Audio
ID                                       : 1
Format                                   : AC-3
Format/Info                              : Audio Coding 3
Mode extension                           : CM (complete main)
Format settings, Endianness              : Big
Codec ID                                 : 2000
Duration                                 : 2h 0mn
Bit rate mode                            : Constant
Bit rate                                 : 80.0 Kbps
Channel(s)                               : 2 channels
Channel positions                        : Front: L R
Sampling rate                            : 48.0 KHz
Bit depth                                : 16 bits
Compression mode                         : Lossy
Stream size                              : 69.0 MiB (10%)
Alignment                                : Aligned on interleaves
Interleave, duration                     : 32 ms (0.80 video frame)



    	http://addpix.net/viewer.php?file=42018556808502072529.jpg
    	http://addpix.net/viewer.php?file=52607424565250167832.jpg
    	http://addpix.net/viewer.php?file=10654430388317216528.jpg
    	http://addpix.net/viewer.php?file=31317746048681166210.jpg
    	http://addpix.net/viewer.php?file=92637891188513516886.jpg